<?xml version="1.0" encoding="UTF-8"?>
<!DOCTYPE svg PUBLIC "-//W3C//DTD SVG 1.1//EN" "http://www.w3.org/Graphics/SVG/1.1/DTD/svg11.dtd">
<svg xmlns="http://www.w3.org/2000/svg" version="1.1" width="56px" height="55px" style="shape-rendering:geometricPrecision; text-rendering:geometricPrecision; image-rendering:optimizeQuality; fill-rule:evenodd; clip-rule:evenodd" xmlns:xlink="http://www.w3.org/1999/xlink">
<g><path style="opacity:0.936" fill="#fe5f5f" d="M 27.5,54.5 C 25.5,54.5 23.5,54.5 21.5,54.5C 15.5638,50.8588 9.56377,47.1921 3.5,43.5C 2.33559,36.5237 2.16892,29.5237 3,22.5C 6.67783,15.1338 10.8445,8.13377 15.5,1.5C 26.7494,8.04082 37.916,14.7075 49,21.5C 49.8311,28.5237 49.6644,35.5237 48.5,42.5C 47.914,42.7093 47.414,43.0426 47,43.5C 46.6667,37.1667 46.3333,30.8333 46,24.5C 43.0844,22.9594 40.2511,21.2927 37.5,19.5C 34.5324,24.9639 31.3658,30.2972 28,35.5C 27.5005,41.8246 27.3338,48.1579 27.5,54.5 Z"/></g>
<g><path style="opacity:0.83" fill="#fe6060" d="M 38.5,33.5 C 39.8048,35.3972 40.4714,37.7305 40.5,40.5C 41.7613,45.6742 39.928,49.0075 35,50.5C 34.3333,45.8333 34.3333,41.1667 35,36.5C 36.5185,35.8366 37.6851,34.8366 38.5,33.5 Z"/></g>
</svg>
